<svg width="26" height="22" viewBox="0 0 26 22" fill="none" xmlns="http://www.w3.org/2000/svg">
<path fill-rule="evenodd" clip-rule="evenodd" d="M22.1989 4.5156C23.7459 4.5156 25 5.75204 25 7.27727V18.2383C25 19.7636 23.7459 21 22.1989 21H3.80112C3.05822 21 2.34574 20.709 1.82043 20.1911C1.29512 19.6732 1 18.9708 1 18.2383V7.27727C1 5.75204 2.2541 4.5156 3.80112 4.5156H7.20168L7.56302 3.09058C7.87524 1.86183 8.9953 1.00003 10.2801 1H15.7199C17.0047 1.00003 18.1248 1.86183 18.437 3.09058L18.7983 4.5156H22.1989ZM22.1989 19.8953C23.1271 19.8953 23.8796 19.1535 23.8796 18.2383V7.27451C23.8796 6.35937 23.1271 5.61751 22.1989 5.61751H18.3613C18.1047 5.61763 17.8808 5.44581 17.8179 5.2005L17.3501 3.35846C17.1626 2.62143 16.4906 2.10462 15.7199 2.10467H10.2801C9.50939 2.10462 8.8374 2.62143 8.64986 3.35846L8.18207 5.2005C8.12028 5.44691 7.89611 5.62007 7.63866 5.62027H3.80112C2.87291 5.62027 2.12045 6.36213 2.12045 7.27727V18.2383C2.12045 19.1535 2.87291 19.8953 3.80112 19.8953H22.1989Z" fill="#0A0A0A"/>
<path d="M1.82043 20.1911L1.39918 20.6184H1.39918L1.82043 20.1911ZM7.20168 4.5156V5.1156H7.66853L7.78327 4.66308L7.20168 4.5156ZM7.56302 3.09058L6.9815 2.94283L6.98143 2.94311L7.56302 3.09058ZM10.2801 1V0.4H10.2801L10.2801 1ZM15.7199 1L15.7199 0.4H15.7199V1ZM18.437 3.09058L19.0186 2.94311L19.0185 2.94283L18.437 3.09058ZM18.7983 4.5156L18.2167 4.66308L18.3315 5.1156H18.7983V4.5156ZM18.3613 5.61751V5.01751H18.3611L18.3613 5.61751ZM17.8179 5.2005L17.2364 5.34818L17.2367 5.34947L17.8179 5.2005ZM17.3501 3.35846L17.9317 3.21078L17.9316 3.2105L17.3501 3.35846ZM15.7199 2.10467V2.70467H15.7199L15.7199 2.10467ZM10.2801 2.10467L10.2801 2.70467H10.2801V2.10467ZM8.64986 3.35846L8.06839 3.2105L8.06832 3.21078L8.64986 3.35846ZM8.18207 5.2005L7.60053 5.05281L7.60009 5.05456L8.18207 5.2005ZM7.63866 5.62027V6.22027L7.63911 6.22027L7.63866 5.62027ZM25.6 7.27727C25.6 5.41268 24.0692 3.9156 22.1989 3.9156V5.1156C23.4226 5.1156 24.4 6.09141 24.4 7.27727H25.6ZM25.6 18.2383V7.27727H24.4V18.2383H25.6ZM22.1989 21.6C24.0692 21.6 25.6 20.1029 25.6 18.2383H24.4C24.4 19.4242 23.4226 20.4 22.1989 20.4V21.6ZM3.80112 21.6H22.1989V20.4H3.80112V21.6ZM1.39918 20.6184C2.03765 21.2479 2.90181 21.6 3.80112 21.6V20.4C3.21462 20.4 2.65383 20.1702 2.24167 19.7639L1.39918 20.6184ZM0.4 18.2383C0.4 19.1327 0.76043 19.9886 1.39918 20.6184L2.24167 19.7639C1.8298 19.3578 1.6 18.8089 1.6 18.2383H0.4ZM0.4 7.27727V18.2383H1.6V7.27727H0.4ZM3.80112 3.9156C1.93079 3.9156 0.4 5.41268 0.4 7.27727H1.6C1.6 6.09141 2.57742 5.1156 3.80112 5.1156V3.9156ZM7.20168 3.9156H3.80112V5.1156H7.20168V3.9156ZM6.98143 2.94311L6.62009 4.36813L7.78327 4.66308L8.14462 3.23806L6.98143 2.94311ZM10.2801 0.4C8.7261 0.40004 7.36259 1.44299 6.9815 2.94283L8.14455 3.23834C8.38788 2.28067 9.26449 1.60003 10.2801 1.6L10.2801 0.4ZM15.7199 0.4H10.2801V1.6H15.7199V0.4ZM19.0185 2.94283C18.6374 1.44299 17.2739 0.40004 15.7199 0.4L15.7199 1.6C16.7355 1.60003 17.6121 2.28067 17.8555 3.23834L19.0185 2.94283ZM19.3799 4.36813L19.0186 2.94311L17.8554 3.23806L18.2167 4.66308L19.3799 4.36813ZM22.1989 3.9156H18.7983V5.1156H22.1989V3.9156ZM23.2796 18.2383C23.2796 18.8141 22.8038 19.2953 22.1989 19.2953V20.4953C23.4504 20.4953 24.4796 19.4928 24.4796 18.2383H23.2796ZM23.2796 7.27451V18.2383H24.4796V7.27451H23.2796ZM22.1989 6.21751C22.8038 6.21751 23.2796 6.69874 23.2796 7.27451H24.4796C24.4796 6.02001 23.4504 5.01751 22.1989 5.01751V6.21751ZM18.3613 6.21751H22.1989V5.01751H18.3613V6.21751ZM17.2367 5.34947C17.3689 5.86535 17.8361 6.21776 18.3616 6.21751L18.3611 5.01751C18.3733 5.0175 18.3927 5.02626 18.3991 5.05153L17.2367 5.34947ZM16.7686 3.50615L17.2364 5.34818L18.3995 5.05281L17.9317 3.21078L16.7686 3.50615ZM15.7199 2.70467C16.2215 2.70464 16.6501 3.04039 16.7687 3.50642L17.9316 3.2105C17.6751 2.20248 16.7597 1.50461 15.7199 1.50467L15.7199 2.70467ZM10.2801 2.70467H15.7199V1.50467H10.2801V2.70467ZM9.23133 3.50642C9.34992 3.04039 9.77848 2.70464 10.2801 2.70467L10.2801 1.50467C9.24029 1.50461 8.32489 2.20248 8.06839 3.2105L9.23133 3.50642ZM8.76361 5.34818L9.2314 3.50615L8.06832 3.21078L7.60053 5.05281L8.76361 5.34818ZM7.63911 6.22027C8.16626 6.21987 8.6341 5.86468 8.76405 5.34643L7.60009 5.05456C7.60647 5.02913 7.62596 5.02028 7.6382 5.02027L7.63911 6.22027ZM3.80112 6.22027H7.63866V5.02027H3.80112V6.22027ZM2.72045 7.27727C2.72045 6.7015 3.19623 6.22027 3.80112 6.22027V5.02027C2.54959 5.02027 1.52045 6.02277 1.52045 7.27727H2.72045ZM2.72045 18.2383V7.27727H1.52045V18.2383H2.72045ZM3.80112 19.2953C3.19623 19.2953 2.72045 18.8141 2.72045 18.2383H1.52045C1.52045 19.4928 2.54959 20.4953 3.80112 20.4953V19.2953ZM22.1989 19.2953H3.80112V20.4953H22.1989V19.2953Z" fill="#0A0A0A"/>
<path fill-rule="evenodd" clip-rule="evenodd" d="M7 12C7 8.68629 9.68629 6 13 6C16.3092 6.01098 18.989 8.69085 19 12C19 15.3137 16.3137 18 13 18C9.68629 18 7 15.3137 7 12ZM8.14286 12.0257C8.14286 14.7082 10.3175 16.8829 13 16.8829C15.6786 16.8735 17.8477 14.7043 17.8571 12.0257C17.8571 9.34319 15.6825 7.16857 13 7.16857C10.3175 7.16857 8.14286 9.34319 8.14286 12.0257Z" fill="#0A0A0A"/>
<path d="M13 6L13.002 5.4H13V6ZM19 12H19.6L19.6 11.998L19 12ZM13 16.8829V17.4829L13.0021 17.4829L13 16.8829ZM17.8571 12.0257L18.4571 12.0278V12.0257H17.8571ZM13 5.4C9.35492 5.4 6.4 8.35492 6.4 12H7.6C7.6 9.01766 10.0177 6.6 13 6.6V5.4ZM19.6 11.998C19.5879 8.35904 16.641 5.41207 13.002 5.4L12.998 6.6C15.9773 6.60988 18.3901 9.02265 18.4 12.002L19.6 11.998ZM13 18.6C16.6451 18.6 19.6 15.6451 19.6 12H18.4C18.4 14.9823 15.9823 17.4 13 17.4V18.6ZM6.4 12C6.4 15.6451 9.35492 18.6 13 18.6V17.4C10.0177 17.4 7.6 14.9823 7.6 12H6.4ZM13 16.2829C10.6488 16.2829 8.74286 14.3769 8.74286 12.0257H7.54286C7.54286 15.0396 9.9861 17.4829 13 17.4829V16.2829ZM17.2571 12.0236C17.2489 14.3725 15.3468 16.2746 12.9979 16.2829L13.0021 17.4829C16.0105 17.4723 18.4466 15.0362 18.4571 12.0278L17.2571 12.0236ZM13 7.76857C15.3512 7.76857 17.2571 9.67456 17.2571 12.0257H18.4571C18.4571 9.01182 16.0139 6.56857 13 6.56857V7.76857ZM8.74286 12.0257C8.74286 9.67456 10.6488 7.76857 13 7.76857V6.56857C9.9861 6.56857 7.54286 9.01182 7.54286 12.0257H8.74286Z" fill="#0A0A0A"/>
</svg>
