<svg width="27" height="23" viewBox="0 0 27 23" fill="none" xmlns="http://www.w3.org/2000/svg">
<path fill-rule="evenodd" clip-rule="evenodd" d="M2.39129 3.84813V13.6242C2.39129 14.4352 3.05842 15.0954 3.87789 15.0954H17.274C18.0927 15.0954 18.7599 14.4352 18.7599 13.6242V3.84813C18.7599 3.03713 18.0927 2.3769 17.274 2.3769H3.87789C3.05842 2.3769 2.39129 3.03713 2.39129 3.84813ZM20.1511 3.84813V13.6242C20.1511 15.1945 18.8607 16.4723 17.274 16.4723H3.87789C2.29042 16.4723 1 15.1945 1 13.6242V3.84813C1 2.27777 2.29042 1 3.87789 1H17.274C18.8607 1 20.1511 2.27777 20.1511 3.84813ZM22.3177 5.81917C22.3177 5.43845 22.6287 5.13071 23.0134 5.13071C24.6001 5.13071 25.8913 6.40779 25.8913 7.97884V17.6888C25.8913 19.9806 24.0068 21.8457 21.691 21.8457H8.05142C6.46465 21.8457 5.17353 20.5686 5.17353 18.9982C5.17353 18.6175 5.48518 18.3098 5.86918 18.3098C6.25387 18.3098 6.56482 18.6175 6.56482 18.9982C6.56482 19.8085 7.23195 20.4687 8.05142 20.4687H21.691C23.2395 20.4687 24.5 19.222 24.5 17.6888V7.97884C24.5 7.16785 23.8329 6.50762 23.0134 6.50762C22.6287 6.50762 22.3177 6.19988 22.3177 5.81917Z" fill="#0A0A0A"/>
<path d="M2.89129 13.6242V3.84813H1.89129V13.6242H2.89129ZM3.87789 14.5954C3.32965 14.5954 2.89129 14.1541 2.89129 13.6242H1.89129C1.89129 14.7162 2.78719 15.5954 3.87789 15.5954V14.5954ZM17.274 14.5954H3.87789V15.5954H17.274V14.5954ZM18.2599 13.6242C18.2599 14.1543 17.8213 14.5954 17.274 14.5954V15.5954C18.3641 15.5954 19.2599 14.716 19.2599 13.6242H18.2599ZM18.2599 3.84813V13.6242H19.2599V3.84813H18.2599ZM17.274 2.8769C17.8213 2.8769 18.2599 3.31801 18.2599 3.84813H19.2599C19.2599 2.75625 18.3641 1.8769 17.274 1.8769V2.8769ZM3.87789 2.8769H17.274V1.8769H3.87789V2.8769ZM2.89129 3.84813C2.89129 3.31816 3.32965 2.8769 3.87789 2.8769V1.8769C2.78719 1.8769 1.89129 2.7561 1.89129 3.84813H2.89129ZM20.6511 13.6242V3.84813H19.6511V13.6242H20.6511ZM17.274 16.9723C19.1321 16.9723 20.6511 15.4754 20.6511 13.6242H19.6511C19.6511 14.9136 18.5893 15.9723 17.274 15.9723V16.9723ZM3.87789 16.9723H17.274V15.9723H3.87789V16.9723ZM0.5 13.6242C0.5 15.4755 2.01912 16.9723 3.87789 16.9723V15.9723C2.56173 15.9723 1.5 14.9136 1.5 13.6242H0.5ZM0.5 3.84813V13.6242H1.5V3.84813H0.5ZM3.87789 0.5C2.01912 0.5 0.5 1.99682 0.5 3.84813H1.5C1.5 2.55872 2.56173 1.5 3.87789 1.5V0.5ZM17.274 0.5H3.87789V1.5H17.274V0.5ZM20.6511 3.84813C20.6511 1.99689 19.1321 0.5 17.274 0.5V1.5C18.5893 1.5 19.6511 2.55864 19.6511 3.84813H20.6511ZM23.0134 4.63071C22.3575 4.63071 21.8177 5.15742 21.8177 5.81917H22.8177C22.8177 5.71948 22.8999 5.63071 23.0134 5.63071V4.63071ZM26.3913 7.97884C26.3913 6.12669 24.8713 4.63071 23.0134 4.63071V5.63071C24.329 5.63071 25.3913 6.6889 25.3913 7.97884H26.3913ZM26.3913 17.6888V7.97884H25.3913V17.6888H26.3913ZM21.691 22.3457C24.278 22.3457 26.3913 20.2617 26.3913 17.6888H25.3913C25.3913 19.6996 23.7355 21.3457 21.691 21.3457V22.3457ZM8.05142 22.3457H21.691V21.3457H8.05142V22.3457ZM4.67353 18.9982C4.67353 20.8498 6.19358 22.3457 8.05142 22.3457V21.3457C6.73572 21.3457 5.67353 20.2874 5.67353 18.9982H4.67353ZM5.86918 17.8098C5.21428 17.8098 4.67353 18.3361 4.67353 18.9982H5.67353C5.67353 18.8989 5.75608 18.8098 5.86918 18.8098V17.8098ZM7.06482 18.9982C7.06482 18.3365 6.5251 17.8098 5.86918 17.8098V18.8098C5.98264 18.8098 6.06482 18.8985 6.06482 18.9982H7.06482ZM8.05142 19.9687C7.50302 19.9687 7.06482 19.5273 7.06482 18.9982H6.06482C6.06482 20.0897 6.96087 20.9687 8.05142 20.9687V19.9687ZM21.691 19.9687H8.05142V20.9687H21.691V19.9687ZM24 17.6888C24 18.9409 22.9683 19.9687 21.691 19.9687V20.9687C23.5106 20.9687 25 19.5031 25 17.6888H24ZM24 7.97884V17.6888H25V7.97884H24ZM23.0134 7.00762C23.5616 7.00762 24 7.44888 24 7.97884H25C25 6.88682 24.1041 6.00762 23.0134 6.00762V7.00762ZM21.8177 5.81917C21.8177 6.48091 22.3575 7.00762 23.0134 7.00762V6.00762C22.8999 6.00762 22.8177 5.91885 22.8177 5.81917H21.8177Z" fill="black"/>
<path fill-rule="evenodd" clip-rule="evenodd" d="M14.0802 7.02491C14.0802 8.00877 14.8542 8.80631 15.809 8.80631C16.7639 8.80631 17.5379 8.00877 17.5379 7.02491C17.5379 6.04087 16.7639 5.24329 15.809 5.24329C14.8542 5.24329 14.0802 6.04087 14.0802 7.02491ZM17.5379 15.9324H3.7063L7.16426 6.43104L11.7747 12.3693L14.0802 10.5877L17.5379 15.9324Z" fill="#0A0A0A"/>
<path d="M17.5379 15.9324V16.4324H18.4569L17.9577 15.6608L17.5379 15.9324ZM3.7063 15.9324L3.23645 15.7614L2.99224 16.4324H3.7063V15.9324ZM7.16426 6.43104L7.5592 6.12441L7.00402 5.40933L6.69441 6.26004L7.16426 6.43104ZM11.7747 12.3693L11.3798 12.676L11.6857 13.07L12.0805 12.765L11.7747 12.3693ZM14.0802 10.5877L14.5 10.3161L14.2047 9.85961L13.7744 10.1921L14.0802 10.5877ZM13.5802 7.02491C13.5802 8.2707 14.5641 9.30631 15.809 9.30631V8.30631C15.1443 8.30631 14.5802 7.74684 14.5802 7.02491H13.5802ZM15.809 9.30631C17.054 9.30631 18.0379 8.2707 18.0379 7.02491H17.0379C17.0379 7.74684 16.4737 8.30631 15.809 8.30631V9.30631ZM18.0379 7.02491C18.0379 5.779 17.0541 4.74329 15.809 4.74329V5.74329C16.4737 5.74329 17.0379 6.30275 17.0379 7.02491H18.0379ZM15.809 4.74329C14.564 4.74329 13.5802 5.779 13.5802 7.02491H14.5802C14.5802 6.30275 15.1444 5.74329 15.809 5.74329V4.74329ZM17.5379 15.4324H3.7063V16.4324H17.5379V15.4324ZM4.17615 16.1034L7.63411 6.60204L6.69441 6.26004L3.23645 15.7614L4.17615 16.1034ZM6.76932 6.73767L11.3798 12.676L12.1697 12.0627L7.5592 6.12441L6.76932 6.73767ZM12.0805 12.765L14.3859 10.9833L13.7744 10.1921L11.469 11.9737L12.0805 12.765ZM13.6604 10.8593L17.1181 16.204L17.9577 15.6608L14.5 10.3161L13.6604 10.8593Z" fill="black"/>
</svg>
