<svg width="24" height="24" viewBox="0 0 24 24" fill="none" xmlns="http://www.w3.org/2000/svg">
<path d="M13.2875 24C12.6764 24 12.1041 23.7708 11.6838 23.351L8.84007 20.5318C8.02034 19.7131 7.98159 18.3586 8.76257 17.2362L13.207 10.282C13.4932 9.84434 14.0834 9.71037 14.5245 9.99616C14.9657 10.282 15.0969 10.8714 14.8107 11.312L10.3514 18.2841C10.3514 18.302 10.3335 18.302 10.3335 18.3228C10.0861 18.686 10.0652 19.0671 10.1993 19.1802L13.0431 22.0203C13.1563 22.1334 13.3471 22.1156 13.4425 22.0769C13.7853 21.9995 14.2235 21.7137 14.4351 21.2195L22.0661 2.39587C22.1614 2.16664 22.1436 2.01481 22.0839 1.95825C22.0243 1.90169 21.8753 1.88085 21.6458 1.97611L2.79493 9.59427C2.30011 9.7848 2.01395 10.2224 1.93645 10.5856C1.91856 10.6987 1.8977 10.8893 1.99309 10.9845L5.12297 14.1104C5.23624 14.2235 5.58202 14.2235 5.9427 14.0151C5.96058 13.9973 5.99933 13.9764 6.0202 13.9764L8.07996 12.9107C8.55689 12.6636 9.12921 12.8541 9.35874 13.3304C9.60615 13.8067 9.41537 14.3783 8.93844 14.6075L6.89657 15.6555C5.80856 16.3223 4.52978 16.2449 3.7488 15.4649L0.639784 12.3212C0.106214 11.7883 -0.105425 11.0054 0.0495782 10.1867C0.258237 9.15665 1.0422 8.22485 2.0527 7.82295L20.9005 0.201817C21.8157 -0.17924 22.7904 -0.00657356 23.3985 0.600736C24.0066 1.20804 24.1795 2.18153 23.7979 3.09547L16.167 21.9191C15.7675 22.9283 14.8316 23.7112 13.8002 23.9196C13.6333 23.9792 13.4604 24 13.2875 24Z" fill="#0A0A0A"/>
</svg>
