<svg width="32" height="28" viewBox="0 0 32 28" fill="none" xmlns="http://www.w3.org/2000/svg">
<path d="M25.0102 12.4H3.61421C2.9175 12.4 2.32681 11.8877 2.22828 11.198C2.1078 10.3546 2.76225 9.6 3.61422 9.6H18.2384C19.5396 9.6 20.4943 8.37722 20.1787 7.11493L20.0063 6.42526C19.526 4.50406 21.8307 3.12802 23.2941 4.46227L28.1855 8.92209C29.5353 10.1528 28.6646 12.4 26.838 12.4H25.0102Z" fill="black" stroke="black"/>
<path d="M6.98978 15.6L28.3858 15.6C29.0825 15.6 29.6732 16.1123 29.7717 16.802C29.8922 17.6454 29.2378 18.4 28.3858 18.4H13.7616C12.4604 18.4 11.5057 19.6228 11.8213 20.8851L11.9937 21.5747C12.474 23.4959 10.1693 24.872 8.7059 23.5377L3.81448 19.0779C2.46468 17.8472 3.33536 15.6 5.16199 15.6H6.98978Z" fill="black" stroke="black"/>
</svg>
